<svg id="Capa_1" data-name="Capa 1" xmlns="http://www.w3.org/2000/svg" viewBox="0 0 128 128">

	<path d="M87,78.37v-.14L38.34,6.17,38.19,6H3.25v4.67l.57-.08c5.88-.87,9.94-.27,12.07,1.78C17.38,13.76,18,16,17.64,19v93.47a5.42,5.42,0,0,1-2.06,4c-2.15,1.62-6.1,1.94-11.74.95l-.59-.1v4.69H38.42v-4.62l-.52,0c-4.53.24-10,.21-12.47-2.25a5.49,5.49,0,0,1-1.4-4.45V82.48H66.41l11,18.32.45-.49C84.35,93.39,87.33,86.21,87,78.37ZM62.15,76.09H24V20.65Z"/>

	<path d="M106.79,31.33C100.42,17.68,87.92,9.47,68.57,6.24A22.51,22.51,0,0,0,64.89,6H42.11L44.9,8.73l.19,0C72.62,10.4,89,23.06,91.24,44.39c.09.94.14,2,.14,3.3V79.38A26.34,26.34,0,0,1,89.59,89c-6.21,15.75-18,22.76-33.77,28.43H41v4.59H77.56l.07,0c14.06-4.11,23.7-14,29.48-30.14a58.28,58.28,0,0,0,3.25-19.67V48.36A40,40,0,0,0,106.79,31.33Z"/>

	<path d="M115.26,117.46c-5.23,0-8.18-7.1-10.33-12.29l-.46-1.09-.46,1.09c-2.48,5.82-8.29,11-17.76,15.94l-1.82.94h40.32v-4.59Z"/>

	<style>

        path { fill: #000; }
        @media (prefers-color-scheme: dark) {
            path { fill: #FFF; }
        }
        
    </style>

</svg>

