<svg id="Capa_1" data-name="Capa 1" xmlns="http://www.w3.org/2000/svg" viewBox="0 0 128 128"><defs><style>.cls-1{stroke:#000;stroke-miterlimit:10;}</style></defs><path class="cls-1" d="M37.92,6.45H3.75V10Q19.4,7.73,18.14,19v93.52c-.5,4.69-4.3,7.16-14.39,5.4v3.59H37.92V118c-8.14.44-14.8-.39-14.39-7.2V82H66.7l10.79,18c5.75-6.14,9.37-13.09,9-21.58ZM23.53,76.59V19L63.1,76.59Z"/><path class="cls-1" d="M43.32,6.45l1.8,1.8C74,10,89.58,23.68,91.73,44.34a31.17,31.17,0,0,1,.15,3.35V79.38a26.71,26.71,0,0,1-1.83,9.84C83.72,105.28,71.76,112.28,55.91,118H41.52v3.59h36c14.67-4.29,23.81-14.9,29.15-29.82a58,58,0,0,0,3.22-19.51V48.36a39.86,39.86,0,0,0-3.52-16.82C99.51,16.9,86,9.65,68.49,6.73a21.75,21.75,0,0,0-3.6-.28Z"/><path class="cls-1" d="M86.48,121.55h37.77V118h-9c-5.4,0-8.34-6.68-10.79-12.59C101.72,111.82,95.18,117,86.48,121.55Z"/></svg>